<svg width="343" height="64" viewBox="0 0 343 64" fill="none" xmlns="http://www.w3.org/2000/svg">
<rect x="0.5" y="0.5" width="342" height="63" rx="11.5" stroke="#E5E7EB"/>
<path d="M29.5 29.5H26.5V22C26.5 21.1715 27.1715 20.5 28 20.5C28.8285 20.5 29.5 21.1715 29.5 22V29.5Z" fill="url(#paint0_linear_25_1386)"/>
<path d="M29.5 26.5H26.5V29H29.5V26.5Z" fill="#16528C"/>
<path d="M35 32H21C20.353 37.1765 19 41.5 19 41.5C19 41.5 22.8235 42.5 28 42.5C33.1765 42.5 37 41.5 37 41.5C37 41.5 35.647 37.1765 35 32Z" fill="url(#paint1_linear_25_1386)"/>
<path d="M25 42.389V37C24.7645 38.8835 24.0955 40.8525 23.6685 42.273C24.09 42.3165 24.537 42.3555 25 42.389Z" fill="url(#paint2_linear_25_1386)"/>
<path d="M32.892 42.21C32.461 40.5585 31.8735 37.487 31.5 34.5V42.3505C31.991 42.3095 32.4535 42.2615 32.892 42.21Z" fill="url(#paint3_linear_25_1386)"/>
<path d="M35 32H21V30.615C21 29.9305 21.4595 29.33 22.1235 29.1625C23.2755 28.872 25.2825 28.5 28 28.5C30.7175 28.5 32.7245 28.872 33.8765 29.1625C34.5405 29.3295 35 29.9305 35 30.615V32Z" fill="url(#paint4_linear_25_1386)"/>
<path d="M49.0387 29V19.5455H54.9016V20.7734H50.4652V23.6541H54.4815V24.8775H50.4652V29H49.0387ZM56.4562 29V21.9091H57.7904V23.0355H57.8643C57.9935 22.6539 58.2213 22.3538 58.5475 22.1353C58.8768 21.9137 59.2492 21.8029 59.6647 21.8029C59.7509 21.8029 59.8524 21.806 59.9694 21.8121C60.0894 21.8183 60.1833 21.826 60.251 21.8352V23.1555C60.1956 23.1402 60.0971 23.1232 59.9555 23.1048C59.814 23.0832 59.6724 23.0724 59.5308 23.0724C59.2046 23.0724 58.9137 23.1417 58.6583 23.2802C58.4059 23.4156 58.2059 23.6049 58.0581 23.848C57.9104 24.0881 57.8366 24.362 57.8366 24.6697V29H56.4562ZM64.2477 29.1431C63.5491 29.1431 62.9474 28.9938 62.4426 28.6953C61.941 28.3937 61.5532 27.9705 61.2793 27.4258C61.0085 26.878 60.873 26.2363 60.873 25.5007C60.873 24.7744 61.0085 24.1342 61.2793 23.5803C61.5532 23.0263 61.9348 22.5939 62.4242 22.283C62.9166 21.9722 63.4921 21.8168 64.1507 21.8168C64.5508 21.8168 64.9386 21.8829 65.3141 22.0153C65.6896 22.1476 66.0266 22.3554 66.3251 22.6385C66.6236 22.9216 66.8591 23.2894 67.0314 23.7418C67.2038 24.1912 67.29 24.7375 67.29 25.3807V25.87H61.6532V24.8359H65.9373C65.9373 24.4728 65.8635 24.1512 65.7157 23.8711C65.568 23.5879 65.3603 23.3648 65.0925 23.2017C64.8278 23.0386 64.517 22.957 64.16 22.957C63.7722 22.957 63.4337 23.0524 63.1444 23.2433C62.8581 23.431 62.6365 23.6772 62.4796 23.9819C62.3257 24.2835 62.2488 24.6113 62.2488 24.9652V25.7731C62.2488 26.247 62.3319 26.6502 62.498 26.9826C62.6673 27.315 62.9028 27.5689 63.2044 27.7443C63.506 27.9167 63.8584 28.0028 64.2615 28.0028C64.5231 28.0028 64.7617 27.9659 64.9771 27.892C65.1925 27.8151 65.3787 27.7012 65.5357 27.5504C65.6926 27.3996 65.8127 27.2134 65.8958 26.9918L67.2022 27.2273C67.0976 27.612 66.9099 27.949 66.639 28.2383C66.3713 28.5245 66.0343 28.7476 65.628 28.9077C65.2248 29.0646 64.7647 29.1431 64.2477 29.1431ZM71.8776 29.1431C71.1789 29.1431 70.5773 28.9938 70.0725 28.6953C69.5709 28.3937 69.1831 27.9705 68.9092 27.4258C68.6383 26.878 68.5029 26.2363 68.5029 25.5007C68.5029 24.7744 68.6383 24.1342 68.9092 23.5803C69.1831 23.0263 69.5647 22.5939 70.0541 22.283C70.5465 21.9722 71.122 21.8168 71.7806 21.8168C72.1807 21.8168 72.5685 21.8829 72.944 22.0153C73.3195 22.1476 73.6565 22.3554 73.955 22.6385C74.2535 22.9216 74.489 23.2894 74.6613 23.7418C74.8337 24.1912 74.9198 24.7375 74.9198 25.3807V25.87H69.2831V24.8359H73.5672C73.5672 24.4728 73.4933 24.1512 73.3456 23.8711C73.1979 23.5879 72.9901 23.3648 72.7224 23.2017C72.4577 23.0386 72.1469 22.957 71.7899 22.957C71.4021 22.957 71.0635 23.0524 70.7742 23.2433C70.488 23.431 70.2664 23.6772 70.1095 23.9819C69.9556 24.2835 69.8786 24.6113 69.8786 24.9652V25.7731C69.8786 26.247 69.9617 26.6502 70.1279 26.9826C70.2972 27.315 70.5326 27.5689 70.8343 27.7443C71.1359 27.9167 71.4883 28.0028 71.8914 28.0028C72.153 28.0028 72.3915 27.9659 72.607 27.892C72.8224 27.8151 73.0086 27.7012 73.1656 27.5504C73.3225 27.3996 73.4426 27.2134 73.5257 26.9918L74.8321 27.2273C74.7275 27.612 74.5397 27.949 74.2689 28.2383C74.0012 28.5245 73.6642 28.7476 73.2579 28.9077C72.8547 29.0646 72.3946 29.1431 71.8776 29.1431ZM84.3836 26.0593V21.9091H85.7686V29H84.4113V27.772H84.3374C84.1743 28.1506 83.9127 28.466 83.5526 28.7184C83.1956 28.9677 82.7509 29.0923 82.2185 29.0923C81.763 29.0923 81.3598 28.9923 81.009 28.7923C80.6612 28.5891 80.3873 28.2891 80.1872 27.892C79.9903 27.495 79.8918 27.0041 79.8918 26.4194V21.9091H81.2721V26.2532C81.2721 26.7364 81.406 27.1211 81.6737 27.4073C81.9415 27.6935 82.2893 27.8366 82.7171 27.8366C82.9756 27.8366 83.2326 27.772 83.488 27.6428C83.7465 27.5135 83.9604 27.3181 84.1297 27.0565C84.3021 26.7949 84.3867 26.4625 84.3836 26.0593ZM87.6232 31.6591V21.9091H88.9712V23.0586H89.0866C89.1667 22.9109 89.2821 22.7401 89.4329 22.5462C89.5837 22.3523 89.793 22.183 90.0607 22.0384C90.3285 21.8906 90.6824 21.8168 91.1225 21.8168C91.695 21.8168 92.2058 21.9614 92.6552 22.2507C93.1045 22.54 93.4569 22.957 93.7124 23.5018C93.9709 24.0465 94.1001 24.7021 94.1001 25.4684C94.1001 26.2347 93.9724 26.8918 93.717 27.4396C93.4615 27.9844 93.1107 28.4045 92.6644 28.6999C92.2182 28.9923 91.7088 29.1385 91.1364 29.1385C90.7055 29.1385 90.3531 29.0662 90.0792 28.9215C89.8084 28.7769 89.596 28.6076 89.4421 28.4137C89.2882 28.2198 89.1697 28.0475 89.0866 27.8967H89.0036V31.6591H87.6232ZM88.9759 25.4545C88.9759 25.9531 89.0482 26.3902 89.1928 26.7656C89.3375 27.1411 89.5468 27.435 89.8207 27.6474C90.0946 27.8567 90.43 27.9613 90.8271 27.9613C91.2395 27.9613 91.5842 27.852 91.8612 27.6335C92.1381 27.4119 92.3474 27.1119 92.489 26.7333C92.6336 26.3548 92.706 25.9285 92.706 25.4545C92.706 24.9867 92.6352 24.5666 92.4936 24.1942C92.3551 23.8219 92.1458 23.5279 91.8658 23.3125C91.5888 23.0971 91.2425 22.9893 90.8271 22.9893C90.427 22.9893 90.0884 23.0924 89.8114 23.2987C89.5375 23.5049 89.3298 23.7926 89.1882 24.1619C89.0466 24.5312 88.9759 24.9621 88.9759 25.4545ZM104.401 23.6403L103.15 23.8619C103.097 23.7018 103.014 23.5495 102.9 23.4048C102.79 23.2602 102.639 23.1417 102.448 23.0494C102.257 22.957 102.019 22.9109 101.732 22.9109C101.341 22.9109 101.015 22.9986 100.754 23.174C100.492 23.3464 100.361 23.5695 100.361 23.8434C100.361 24.0804 100.449 24.2712 100.624 24.4158C100.8 24.5605 101.083 24.679 101.474 24.7713L102.6 25.0298C103.253 25.1806 103.739 25.413 104.059 25.7269C104.379 26.0408 104.539 26.4486 104.539 26.9503C104.539 27.375 104.416 27.7536 104.17 28.0859C103.927 28.4152 103.587 28.6738 103.15 28.8615C102.716 29.0492 102.212 29.1431 101.64 29.1431C100.846 29.1431 100.198 28.9738 99.6965 28.6353C99.1948 28.2937 98.887 27.8089 98.7732 27.1811L100.107 26.978C100.19 27.3258 100.361 27.5889 100.62 27.7674C100.878 27.9428 101.215 28.0305 101.631 28.0305C102.083 28.0305 102.445 27.9367 102.716 27.7489C102.986 27.5581 103.122 27.3258 103.122 27.0518C103.122 26.8303 103.039 26.6441 102.873 26.4933C102.709 26.3424 102.459 26.2286 102.12 26.1516L100.92 25.8885C100.258 25.7377 99.7688 25.4976 99.4518 25.1683C99.1379 24.839 98.9809 24.422 98.9809 23.9173C98.9809 23.4987 99.0979 23.1325 99.3318 22.8185C99.5657 22.5046 99.8888 22.2599 100.301 22.0845C100.714 21.906 101.186 21.8168 101.718 21.8168C102.485 21.8168 103.088 21.983 103.528 22.3153C103.968 22.6446 104.259 23.0863 104.401 23.6403ZM106.057 31.6591V21.9091H107.405V23.0586H107.52C107.6 22.9109 107.716 22.7401 107.866 22.5462C108.017 22.3523 108.227 22.183 108.494 22.0384C108.762 21.8906 109.116 21.8168 109.556 21.8168C110.129 21.8168 110.639 21.9614 111.089 22.2507C111.538 22.54 111.891 22.957 112.146 23.5018C112.404 24.0465 112.534 24.7021 112.534 25.4684C112.534 26.2347 112.406 26.8918 112.151 27.4396C111.895 27.9844 111.544 28.4045 111.098 28.6999C110.652 28.9923 110.142 29.1385 109.57 29.1385C109.139 29.1385 108.787 29.0662 108.513 28.9215C108.242 28.7769 108.03 28.6076 107.876 28.4137C107.722 28.2198 107.603 28.0475 107.52 27.8967H107.437V31.6591H106.057ZM107.409 25.4545C107.409 25.9531 107.482 26.3902 107.626 26.7656C107.771 27.1411 107.98 27.435 108.254 27.6474C108.528 27.8567 108.864 27.9613 109.261 27.9613C109.673 27.9613 110.018 27.852 110.295 27.6335C110.572 27.4119 110.781 27.1119 110.923 26.7333C111.067 26.3548 111.14 25.9285 111.14 25.4545C111.14 24.9867 111.069 24.5666 110.927 24.1942C110.789 23.8219 110.579 23.5279 110.299 23.3125C110.022 23.0971 109.676 22.9893 109.261 22.9893C108.861 22.9893 108.522 23.0924 108.245 23.2987C107.971 23.5049 107.763 23.7926 107.622 24.1619C107.48 24.5312 107.409 24.9621 107.409 25.4545ZM116.144 29.157C115.694 29.157 115.288 29.0739 114.925 28.9077C114.562 28.7384 114.274 28.4937 114.062 28.1737C113.853 27.8536 113.748 27.4612 113.748 26.9964C113.748 26.5964 113.825 26.267 113.979 26.0085C114.133 25.75 114.34 25.5453 114.602 25.3945C114.864 25.2437 115.156 25.1299 115.479 25.0529C115.802 24.976 116.132 24.9175 116.467 24.8775C116.892 24.8282 117.236 24.7882 117.501 24.7575C117.766 24.7236 117.958 24.6697 118.078 24.5959C118.198 24.522 118.258 24.402 118.258 24.2358V24.2035C118.258 23.8003 118.144 23.4879 117.917 23.2663C117.692 23.0447 117.356 22.9339 116.91 22.9339C116.445 22.9339 116.079 23.037 115.811 23.2433C115.547 23.4464 115.364 23.6726 115.262 23.9219L113.965 23.6264C114.119 23.1955 114.343 22.8478 114.639 22.5831C114.937 22.3153 115.281 22.1214 115.668 22.0014C116.056 21.8783 116.464 21.8168 116.892 21.8168C117.175 21.8168 117.475 21.8506 117.792 21.9183C118.112 21.983 118.411 22.103 118.688 22.2784C118.968 22.4538 119.197 22.7047 119.375 23.0309C119.554 23.354 119.643 23.7741 119.643 24.2912V29H118.295V28.0305H118.24C118.15 28.209 118.017 28.3845 117.838 28.5568C117.66 28.7292 117.43 28.8723 117.15 28.9862C116.87 29.1 116.535 29.157 116.144 29.157ZM116.444 28.049C116.826 28.049 117.152 27.9736 117.423 27.8228C117.696 27.672 117.904 27.475 118.046 27.2319C118.19 26.9857 118.263 26.7225 118.263 26.4425V25.5284C118.214 25.5777 118.118 25.6238 117.977 25.6669C117.838 25.7069 117.68 25.7423 117.501 25.7731C117.323 25.8008 117.149 25.8269 116.979 25.8516C116.81 25.8731 116.669 25.8916 116.555 25.907C116.287 25.9408 116.042 25.9978 115.821 26.0778C115.602 26.1578 115.427 26.2732 115.294 26.424C115.165 26.5717 115.1 26.7687 115.1 27.0149C115.1 27.3565 115.227 27.6151 115.479 27.7905C115.731 27.9628 116.053 28.049 116.444 28.049ZM124.468 29.1431C123.782 29.1431 123.191 28.9877 122.696 28.6768C122.203 28.3629 121.825 27.9305 121.56 27.3796C121.295 26.8287 121.163 26.1978 121.163 25.4869C121.163 24.7667 121.299 24.1312 121.569 23.5803C121.84 23.0263 122.222 22.5939 122.714 22.283C123.207 21.9722 123.787 21.8168 124.455 21.8168C124.993 21.8168 125.473 21.9168 125.895 22.1168C126.317 22.3138 126.657 22.5908 126.915 22.9478C127.177 23.3048 127.332 23.7218 127.381 24.1989H126.038C125.964 23.8665 125.795 23.5803 125.53 23.3402C125.269 23.1001 124.918 22.9801 124.478 22.9801C124.093 22.9801 123.756 23.0817 123.467 23.2848C123.18 23.4848 122.957 23.7711 122.797 24.1435C122.637 24.5128 122.557 24.9498 122.557 25.4545C122.557 25.9716 122.636 26.4179 122.793 26.7933C122.95 27.1688 123.171 27.4596 123.457 27.6658C123.747 27.872 124.087 27.9751 124.478 27.9751C124.739 27.9751 124.976 27.9274 125.189 27.832C125.404 27.7335 125.584 27.5935 125.729 27.4119C125.877 27.2304 125.98 27.0118 126.038 26.7564H127.381C127.332 27.215 127.183 27.6243 126.934 27.9844C126.684 28.3445 126.35 28.6276 125.932 28.8338C125.516 29.04 125.029 29.1431 124.468 29.1431ZM131.914 29.1431C131.215 29.1431 130.613 28.9938 130.109 28.6953C129.607 28.3937 129.219 27.9705 128.945 27.4258C128.674 26.878 128.539 26.2363 128.539 25.5007C128.539 24.7744 128.674 24.1342 128.945 23.5803C129.219 23.0263 129.601 22.5939 130.09 22.283C130.583 21.9722 131.158 21.8168 131.817 21.8168C132.217 21.8168 132.605 21.8829 132.98 22.0153C133.356 22.1476 133.693 22.3554 133.991 22.6385C134.29 22.9216 134.525 23.2894 134.697 23.7418C134.87 24.1912 134.956 24.7375 134.956 25.3807V25.87H129.319V24.8359H133.603C133.603 24.4728 133.529 24.1512 133.382 23.8711C133.234 23.5879 133.026 23.3648 132.759 23.2017C132.494 23.0386 132.183 22.957 131.826 22.957C131.438 22.957 131.1 23.0524 130.81 23.2433C130.524 23.431 130.303 23.6772 130.146 23.9819C129.992 24.2835 129.915 24.6113 129.915 24.9652V25.7731C129.915 26.247 129.998 26.6502 130.164 26.9826C130.333 27.315 130.569 27.5689 130.87 27.7443C131.172 27.9167 131.524 28.0028 131.928 28.0028C132.189 28.0028 132.428 27.9659 132.643 27.892C132.859 27.8151 133.045 27.7012 133.202 27.5504C133.359 27.3996 133.479 27.2134 133.562 26.9918L134.868 27.2273C134.764 27.612 134.576 27.949 134.305 28.2383C134.037 28.5245 133.7 28.7476 133.294 28.9077C132.891 29.0646 132.431 29.1431 131.914 29.1431Z" fill="#1F2937"/>
<path d="M53.8523 41C53.7741 40.7609 53.6712 40.5466 53.5433 40.3572C53.4179 40.1655 53.2675 40.0021 53.0923 39.8672C52.9195 39.7322 52.723 39.6293 52.5028 39.5582C52.2827 39.4872 52.0412 39.4517 51.7784 39.4517C51.3475 39.4517 50.9557 39.563 50.603 39.7855C50.2502 40.008 49.9697 40.3359 49.7614 40.7692C49.553 41.2024 49.4489 41.7339 49.4489 42.3636C49.4489 42.9934 49.5542 43.5249 49.7649 43.9581C49.9756 44.3913 50.2609 44.7192 50.6207 44.9418C50.9806 45.1643 51.3854 45.2756 51.8352 45.2756C52.2519 45.2756 52.6188 45.1868 52.9361 45.0092C53.2557 44.8293 53.5043 44.576 53.6818 44.2493C53.8617 43.9202 53.9517 43.5331 53.9517 43.0881L54.2216 43.1449H52.0341V42.3636H54.804V43.1449C54.804 43.7438 54.6761 44.2647 54.4205 44.7074C54.1671 45.1501 53.8168 45.4934 53.3693 45.7372C52.9242 45.9787 52.4129 46.0994 51.8352 46.0994C51.1913 46.0994 50.6255 45.9479 50.1378 45.6449C49.6525 45.3419 49.2737 44.911 49.0014 44.3523C48.7315 43.7936 48.5966 43.1307 48.5966 42.3636C48.5966 41.7884 48.6735 41.2711 48.8274 40.8118C48.9837 40.3501 49.2038 39.9571 49.4879 39.6328C49.772 39.3085 50.1082 39.0599 50.4964 38.8871C50.8847 38.7143 51.312 38.6278 51.7784 38.6278C52.1619 38.6278 52.5194 38.6858 52.8509 38.8018C53.1847 38.9155 53.4818 39.0777 53.7422 39.2884C54.005 39.4967 54.224 39.7464 54.3991 40.0376C54.5743 40.3265 54.6951 40.6473 54.7614 41H53.8523ZM58.4146 46.1136C57.9222 46.1136 57.4901 45.9964 57.1184 45.7621C56.7491 45.5277 56.4603 45.1998 56.252 44.7784C56.046 44.357 55.943 43.8646 55.943 43.3011C55.943 42.733 56.046 42.237 56.252 41.8132C56.4603 41.3894 56.7491 41.0604 57.1184 40.826C57.4901 40.5916 57.9222 40.4744 58.4146 40.4744C58.907 40.4744 59.3379 40.5916 59.7072 40.826C60.0789 41.0604 60.3677 41.3894 60.5737 41.8132C60.782 42.237 60.8862 42.733 60.8862 43.3011C60.8862 43.8646 60.782 44.357 60.5737 44.7784C60.3677 45.1998 60.0789 45.5277 59.7072 45.7621C59.3379 45.9964 58.907 46.1136 58.4146 46.1136ZM58.4146 45.3608C58.7886 45.3608 59.0964 45.2649 59.3379 45.0732C59.5794 44.8814 59.7581 44.6293 59.8741 44.3168C59.9901 44.0043 60.0481 43.6657 60.0481 43.3011C60.0481 42.9366 59.9901 42.5968 59.8741 42.282C59.7581 41.9671 59.5794 41.7126 59.3379 41.5185C59.0964 41.3243 58.7886 41.2273 58.4146 41.2273C58.0405 41.2273 57.7328 41.3243 57.4913 41.5185C57.2498 41.7126 57.0711 41.9671 56.9551 42.282C56.8391 42.5968 56.7811 42.9366 56.7811 43.3011C56.7811 43.6657 56.8391 44.0043 56.9551 44.3168C57.0711 44.6293 57.2498 44.8814 57.4913 45.0732C57.7328 45.2649 58.0405 45.3608 58.4146 45.3608ZM67.3501 40.5455V41.2557H64.5234V40.5455H67.3501ZM65.3473 39.2386H66.1854V44.4375C66.1854 44.6742 66.2197 44.8518 66.2884 44.9702C66.3594 45.0862 66.4493 45.1643 66.5582 45.2045C66.6695 45.2424 66.7867 45.2614 66.9098 45.2614C67.0021 45.2614 67.0779 45.2566 67.1371 45.2472C67.1963 45.2353 67.2436 45.2259 67.2791 45.2188L67.4496 45.9716C67.3928 45.9929 67.3134 46.0142 67.2116 46.0355C67.1098 46.0592 66.9808 46.071 66.8246 46.071C66.5878 46.071 66.3558 46.0201 66.1286 45.9183C65.9036 45.8165 65.7166 45.6615 65.5675 45.4531C65.4207 45.2448 65.3473 44.982 65.3473 44.6648V39.2386ZM70.7681 46.1136C70.2757 46.1136 69.8436 45.9964 69.4719 45.7621C69.1026 45.5277 68.8138 45.1998 68.6055 44.7784C68.3995 44.357 68.2965 43.8646 68.2965 43.3011C68.2965 42.733 68.3995 42.237 68.6055 41.8132C68.8138 41.3894 69.1026 41.0604 69.4719 40.826C69.8436 40.5916 70.2757 40.4744 70.7681 40.4744C71.2605 40.4744 71.6914 40.5916 72.0607 40.826C72.4324 41.0604 72.7212 41.3894 72.9272 41.8132C73.1355 42.237 73.2397 42.733 73.2397 43.3011C73.2397 43.8646 73.1355 44.357 72.9272 44.7784C72.7212 45.1998 72.4324 45.5277 72.0607 45.7621C71.6914 45.9964 71.2605 46.1136 70.7681 46.1136ZM70.7681 45.3608C71.1422 45.3608 71.4499 45.2649 71.6914 45.0732C71.9329 44.8814 72.1116 44.6293 72.2276 44.3168C72.3436 44.0043 72.4016 43.6657 72.4016 43.3011C72.4016 42.9366 72.3436 42.5968 72.2276 42.282C72.1116 41.9671 71.9329 41.7126 71.6914 41.5185C71.4499 41.3243 71.1422 41.2273 70.7681 41.2273C70.3941 41.2273 70.0863 41.3243 69.8448 41.5185C69.6033 41.7126 69.4246 41.9671 69.3086 42.282C69.1926 42.5968 69.1346 42.9366 69.1346 43.3011C69.1346 43.6657 69.1926 44.0043 69.3086 44.3168C69.4246 44.6293 69.6033 44.8814 69.8448 45.0732C70.0863 45.2649 70.3941 45.3608 70.7681 45.3608ZM83.2974 41H82.4167C82.3646 40.7467 82.2735 40.5241 82.1433 40.3324C82.0154 40.1406 81.8592 39.9796 81.6745 39.8494C81.4922 39.7169 81.2898 39.6174 81.0673 39.5511C80.8448 39.4848 80.6127 39.4517 80.3713 39.4517C79.9309 39.4517 79.532 39.563 79.1745 39.7855C78.8194 40.008 78.5365 40.3359 78.3258 40.7692C78.1175 41.2024 78.0133 41.7339 78.0133 42.3636C78.0133 42.9934 78.1175 43.5249 78.3258 43.9581C78.5365 44.3913 78.8194 44.7192 79.1745 44.9418C79.532 45.1643 79.9309 45.2756 80.3713 45.2756C80.6127 45.2756 80.8448 45.2424 81.0673 45.1761C81.2898 45.1098 81.4922 45.0116 81.6745 44.8814C81.8592 44.7488 82.0154 44.5866 82.1433 44.3949C82.2735 44.2008 82.3646 43.9782 82.4167 43.7273H83.2974C83.2311 44.099 83.1104 44.4316 82.9352 44.7251C82.76 45.0187 82.5422 45.2685 82.2818 45.4744C82.0214 45.678 81.729 45.8331 81.4047 45.9396C81.0827 46.0462 80.7382 46.0994 80.3713 46.0994C79.751 46.0994 79.1994 45.9479 78.7164 45.6449C78.2335 45.3419 77.8535 44.911 77.5765 44.3523C77.2995 43.7936 77.161 43.1307 77.161 42.3636C77.161 41.5966 77.2995 40.9337 77.5765 40.375C77.8535 39.8163 78.2335 39.3854 78.7164 39.0824C79.1994 38.7794 79.751 38.6278 80.3713 38.6278C80.7382 38.6278 81.0827 38.6811 81.4047 38.7876C81.729 38.8942 82.0214 39.0504 82.2818 39.2564C82.5422 39.46 82.76 39.7086 82.9352 40.0021C83.1104 40.2933 83.2311 40.6259 83.2974 41ZM85.445 38.7273V46H84.6069V38.7273H85.445ZM89.2669 46.1136C88.7413 46.1136 88.2879 45.9976 87.9068 45.7656C87.528 45.5312 87.2356 45.2045 87.0297 44.7855C86.8261 44.3641 86.7243 43.8741 86.7243 43.3153C86.7243 42.7566 86.8261 42.2642 87.0297 41.8381C87.2356 41.4096 87.5221 41.0758 87.889 40.8366C88.2583 40.5952 88.6892 40.4744 89.1816 40.4744C89.4657 40.4744 89.7463 40.5218 90.0233 40.6165C90.3002 40.7112 90.5524 40.8651 90.7797 41.0781C91.0069 41.2888 91.188 41.5682 91.323 41.9162C91.4579 42.2642 91.5254 42.6927 91.5254 43.2017V43.5568H87.3208V42.8324H90.6731C90.6731 42.5246 90.6116 42.25 90.4885 42.0085C90.3677 41.767 90.1949 41.5765 89.97 41.4368C89.7475 41.2971 89.4847 41.2273 89.1816 41.2273C88.8478 41.2273 88.559 41.3101 88.3152 41.4759C88.0737 41.6392 87.8878 41.8523 87.7576 42.1151C87.6274 42.3778 87.5623 42.6596 87.5623 42.9602V43.4432C87.5623 43.8551 87.6333 44.2043 87.7754 44.4908C87.9198 44.7749 88.1199 44.9915 88.3755 45.1406C88.6312 45.2874 88.9283 45.3608 89.2669 45.3608C89.487 45.3608 89.6859 45.33 89.8635 45.2685C90.0434 45.2045 90.1984 45.1098 90.3287 44.9844C90.4589 44.8565 90.5595 44.6979 90.6305 44.5085L91.4402 44.7358C91.3549 45.0104 91.2117 45.2519 91.0105 45.4602C90.8092 45.6662 90.5607 45.8272 90.2647 45.9432C89.9688 46.0568 89.6362 46.1136 89.2669 46.1136ZM94.4054 46.1278C94.0597 46.1278 93.746 46.0627 93.4643 45.9325C93.1826 45.8 92.9589 45.6094 92.7931 45.3608C92.6274 45.1098 92.5446 44.8068 92.5446 44.4517C92.5446 44.1392 92.6061 43.8859 92.7292 43.6918C92.8523 43.4953 93.0169 43.3414 93.2228 43.2301C93.4288 43.1188 93.6561 43.036 93.9047 42.9815C94.1556 42.9247 94.4077 42.8797 94.661 42.8466C94.9925 42.804 95.2612 42.772 95.4672 42.7507C95.6755 42.727 95.827 42.688 95.9217 42.6335C96.0188 42.5791 96.0673 42.4844 96.0673 42.3494V42.321C96.0673 41.9706 95.9714 41.6984 95.7797 41.5043C95.5903 41.3101 95.3026 41.2131 94.9167 41.2131C94.5166 41.2131 94.2029 41.3007 93.9757 41.4759C93.7484 41.651 93.5886 41.8381 93.4963 42.0369L92.7008 41.7528C92.8429 41.4214 93.0323 41.1634 93.269 40.9787C93.5081 40.7917 93.7685 40.6615 94.0502 40.5881C94.3343 40.5123 94.6137 40.4744 94.8883 40.4744C95.0635 40.4744 95.2647 40.4957 95.492 40.5384C95.7217 40.5786 95.943 40.6626 96.1561 40.7905C96.3715 40.9183 96.5502 41.1113 96.6923 41.3693C96.8343 41.6274 96.9054 41.973 96.9054 42.4062V46H96.0673V45.2614H96.0247C95.9679 45.3797 95.8732 45.5064 95.7406 45.6413C95.608 45.7763 95.4316 45.8911 95.2115 45.9858C94.9913 46.0805 94.7226 46.1278 94.4054 46.1278ZM94.5332 45.375C94.8646 45.375 95.144 45.3099 95.3713 45.1797C95.6009 45.0495 95.7737 44.8814 95.8897 44.6754C96.0081 44.4695 96.0673 44.2528 96.0673 44.0256V43.2585C96.0318 43.3011 95.9537 43.3402 95.8329 43.3757C95.7145 43.4089 95.5772 43.4384 95.421 43.4645C95.2671 43.4882 95.1168 43.5095 94.97 43.5284C94.8256 43.545 94.7084 43.5592 94.6184 43.571C94.4006 43.5994 94.197 43.6456 94.0076 43.7095C93.8206 43.7711 93.6691 43.8646 93.5531 43.9901C93.4395 44.1132 93.3826 44.2812 93.3826 44.4943C93.3826 44.7855 93.4904 45.0057 93.7058 45.1548C93.9236 45.3016 94.1994 45.375 94.5332 45.375ZM99.2731 42.7188V46H98.435V40.5455H99.2447V41.3977H99.3157C99.4435 41.1207 99.6377 40.8982 99.8981 40.7301C100.158 40.5597 100.495 40.4744 100.907 40.4744C101.276 40.4744 101.599 40.5502 101.876 40.7017C102.153 40.8509 102.368 41.0781 102.522 41.3835C102.676 41.6866 102.753 42.0701 102.753 42.5341V46H101.915V42.5909C101.915 42.1624 101.804 41.8286 101.581 41.5895C101.359 41.348 101.053 41.2273 100.665 41.2273C100.398 41.2273 100.158 41.2853 99.9478 41.4013C99.7395 41.5173 99.5749 41.6866 99.4542 41.9091C99.3335 42.1316 99.2731 42.4015 99.2731 42.7188ZM109.469 40.5455V41.2557H106.643V40.5455H109.469ZM107.466 39.2386H108.305V44.4375C108.305 44.6742 108.339 44.8518 108.407 44.9702C108.479 45.0862 108.568 45.1643 108.677 45.2045C108.789 45.2424 108.906 45.2614 109.029 45.2614C109.121 45.2614 109.197 45.2566 109.256 45.2472C109.315 45.2353 109.363 45.2259 109.398 45.2188L109.569 45.9716C109.512 45.9929 109.433 46.0142 109.331 46.0355C109.229 46.0592 109.1 46.071 108.944 46.071C108.707 46.071 108.475 46.0201 108.248 45.9183C108.023 45.8165 107.836 45.6615 107.687 45.4531C107.54 45.2448 107.466 44.982 107.466 44.6648V39.2386ZM112.887 46.1136C112.395 46.1136 111.963 45.9964 111.591 45.7621C111.222 45.5277 110.933 45.1998 110.725 44.7784C110.519 44.357 110.416 43.8646 110.416 43.3011C110.416 42.733 110.519 42.237 110.725 41.8132C110.933 41.3894 111.222 41.0604 111.591 40.826C111.963 40.5916 112.395 40.4744 112.887 40.4744C113.38 40.4744 113.811 40.5916 114.18 40.826C114.552 41.0604 114.84 41.3894 115.046 41.8132C115.255 42.237 115.359 42.733 115.359 43.3011C115.359 43.8646 115.255 44.357 115.046 44.7784C114.84 45.1998 114.552 45.5277 114.18 45.7621C113.811 45.9964 113.38 46.1136 112.887 46.1136ZM112.887 45.3608C113.261 45.3608 113.569 45.2649 113.811 45.0732C114.052 44.8814 114.231 44.6293 114.347 44.3168C114.463 44.0043 114.521 43.6657 114.521 43.3011C114.521 42.9366 114.463 42.5968 114.347 42.282C114.231 41.9671 114.052 41.7126 113.811 41.5185C113.569 41.3243 113.261 41.2273 112.887 41.2273C112.513 41.2273 112.205 41.3243 111.964 41.5185C111.722 41.7126 111.544 41.9671 111.428 42.282C111.312 42.5968 111.254 42.9366 111.254 43.3011C111.254 43.6657 111.312 44.0043 111.428 44.3168C111.544 44.6293 111.722 44.8814 111.964 45.0732C112.205 45.2649 112.513 45.3608 112.887 45.3608ZM119.451 46V40.5455H120.26V41.3977H120.331C120.445 41.1065 120.628 40.8804 120.882 40.7195C121.135 40.5561 121.439 40.4744 121.794 40.4744C122.154 40.4744 122.454 40.5561 122.693 40.7195C122.934 40.8804 123.123 41.1065 123.257 41.3977H123.314C123.454 41.116 123.663 40.8923 123.943 40.7266C124.222 40.5585 124.557 40.4744 124.948 40.4744C125.435 40.4744 125.834 40.6271 126.145 40.9325C126.455 41.2356 126.61 41.7079 126.61 42.3494V46H125.772V42.3494C125.772 41.947 125.662 41.6593 125.441 41.4865C125.221 41.3137 124.962 41.2273 124.664 41.2273C124.28 41.2273 123.983 41.3433 123.772 41.5753C123.562 41.8049 123.456 42.0961 123.456 42.4489V46H122.604V42.2642C122.604 41.9541 122.503 41.7043 122.302 41.5149C122.101 41.3232 121.842 41.2273 121.525 41.2273C121.307 41.2273 121.103 41.2853 120.914 41.4013C120.727 41.5173 120.575 41.6783 120.459 41.8842C120.346 42.0878 120.289 42.3234 120.289 42.5909V46H119.451ZM129.747 46.1278C129.402 46.1278 129.088 46.0627 128.806 45.9325C128.524 45.8 128.301 45.6094 128.135 45.3608C127.969 45.1098 127.886 44.8068 127.886 44.4517C127.886 44.1392 127.948 43.8859 128.071 43.6918C128.194 43.4953 128.359 43.3414 128.565 43.2301C128.771 43.1188 128.998 43.036 129.246 42.9815C129.497 42.9247 129.75 42.8797 130.003 42.8466C130.334 42.804 130.603 42.772 130.809 42.7507C131.017 42.727 131.169 42.688 131.263 42.6335C131.361 42.5791 131.409 42.4844 131.409 42.3494V42.321C131.409 41.9706 131.313 41.6984 131.121 41.5043C130.932 41.3101 130.644 41.2131 130.259 41.2131C129.858 41.2131 129.545 41.3007 129.317 41.4759C129.09 41.651 128.93 41.8381 128.838 42.0369L128.043 41.7528C128.185 41.4214 128.374 41.1634 128.611 40.9787C128.85 40.7917 129.11 40.6615 129.392 40.5881C129.676 40.5123 129.955 40.4744 130.23 40.4744C130.405 40.4744 130.607 40.4957 130.834 40.5384C131.063 40.5786 131.285 40.6626 131.498 40.7905C131.713 40.9183 131.892 41.1113 132.034 41.3693C132.176 41.6274 132.247 41.973 132.247 42.4062V46H131.409V45.2614H131.366C131.31 45.3797 131.215 45.5064 131.082 45.6413C130.95 45.7763 130.773 45.8911 130.553 45.9858C130.333 46.0805 130.064 46.1278 129.747 46.1278ZM129.875 45.375C130.206 45.375 130.486 45.3099 130.713 45.1797C130.943 45.0495 131.116 44.8814 131.232 44.6754C131.35 44.4695 131.409 44.2528 131.409 44.0256V43.2585C131.374 43.3011 131.295 43.3402 131.175 43.3757C131.056 43.4089 130.919 43.4384 130.763 43.4645C130.609 43.4882 130.459 43.5095 130.312 43.5284C130.167 43.545 130.05 43.5592 129.96 43.571C129.742 43.5994 129.539 43.6456 129.349 43.7095C129.162 43.7711 129.011 43.8646 128.895 43.9901C128.781 44.1132 128.724 44.2812 128.724 44.4943C128.724 44.7855 128.832 45.0057 129.048 45.1548C129.265 45.3016 129.541 45.375 129.875 45.375ZM134.615 42.7188V46H133.777V40.5455H134.586V41.3977H134.657C134.785 41.1207 134.979 40.8982 135.24 40.7301C135.5 40.5597 135.836 40.4744 136.248 40.4744C136.618 40.4744 136.941 40.5502 137.218 40.7017C137.495 40.8509 137.71 41.0781 137.864 41.3835C138.018 41.6866 138.095 42.0701 138.095 42.5341V46H137.257V42.5909C137.257 42.1624 137.146 41.8286 136.923 41.5895C136.701 41.348 136.395 41.2273 136.007 41.2273C135.739 41.2273 135.5 41.2853 135.29 41.4013C135.081 41.5173 134.917 41.6866 134.796 41.9091C134.675 42.1316 134.615 42.4015 134.615 42.7188ZM141.232 46.1278C140.886 46.1278 140.572 46.0627 140.29 45.9325C140.009 45.8 139.785 45.6094 139.619 45.3608C139.454 45.1098 139.371 44.8068 139.371 44.4517C139.371 44.1392 139.432 43.8859 139.555 43.6918C139.679 43.4953 139.843 43.3414 140.049 43.2301C140.255 43.1188 140.482 43.036 140.731 42.9815C140.982 42.9247 141.234 42.8797 141.487 42.8466C141.819 42.804 142.087 42.772 142.293 42.7507C142.502 42.727 142.653 42.688 142.748 42.6335C142.845 42.5791 142.893 42.4844 142.893 42.3494V42.321C142.893 41.9706 142.798 41.6984 142.606 41.5043C142.416 41.3101 142.129 41.2131 141.743 41.2131C141.343 41.2131 141.029 41.3007 140.802 41.4759C140.575 41.651 140.415 41.8381 140.322 42.0369L139.527 41.7528C139.669 41.4214 139.858 41.1634 140.095 40.9787C140.334 40.7917 140.595 40.6615 140.876 40.5881C141.161 40.5123 141.44 40.4744 141.714 40.4744C141.89 40.4744 142.091 40.4957 142.318 40.5384C142.548 40.5786 142.769 40.6626 142.982 40.7905C143.198 40.9183 143.376 41.1113 143.518 41.3693C143.661 41.6274 143.732 41.973 143.732 42.4062V46H142.893V45.2614H142.851C142.794 45.3797 142.699 45.5064 142.567 45.6413C142.434 45.7763 142.258 45.8911 142.038 45.9858C141.817 46.0805 141.549 46.1278 141.232 46.1278ZM141.359 45.375C141.691 45.375 141.97 45.3099 142.197 45.1797C142.427 45.0495 142.6 44.8814 142.716 44.6754C142.834 44.4695 142.893 44.2528 142.893 44.0256V43.2585C142.858 43.3011 142.78 43.3402 142.659 43.3757C142.541 43.4089 142.403 43.4384 142.247 43.4645C142.093 43.4882 141.943 43.5095 141.796 43.5284C141.652 43.545 141.535 43.5592 141.445 43.571C141.227 43.5994 141.023 43.6456 140.834 43.7095C140.647 43.7711 140.495 43.8646 140.379 43.9901C140.266 44.1132 140.209 44.2812 140.209 44.4943C140.209 44.7855 140.317 45.0057 140.532 45.1548C140.75 45.3016 141.026 45.375 141.359 45.375ZM147.463 48.1591C147.058 48.1591 146.71 48.107 146.419 48.0028C146.128 47.901 145.885 47.7661 145.691 47.598C145.499 47.4323 145.346 47.2547 145.233 47.0653L145.9 46.5966C145.976 46.696 146.072 46.8097 146.188 46.9375C146.304 47.0677 146.463 47.1802 146.664 47.2749C146.867 47.3719 147.134 47.4205 147.463 47.4205C147.903 47.4205 148.267 47.3139 148.553 47.1009C148.84 46.8878 148.983 46.554 148.983 46.0994V44.9915H148.912C148.85 45.0909 148.763 45.214 148.649 45.3608C148.538 45.5052 148.377 45.6342 148.166 45.7479C147.958 45.8591 147.676 45.9148 147.321 45.9148C146.881 45.9148 146.485 45.8106 146.135 45.6023C145.787 45.3939 145.511 45.0909 145.307 44.6932C145.106 44.2955 145.006 43.8125 145.006 43.2443C145.006 42.6856 145.104 42.1991 145.3 41.7848C145.497 41.3681 145.77 41.0462 146.121 40.8189C146.471 40.5893 146.876 40.4744 147.335 40.4744C147.69 40.4744 147.972 40.5336 148.18 40.652C148.391 40.768 148.552 40.9006 148.663 41.0497C148.777 41.1965 148.864 41.3172 148.926 41.4119H149.011V40.5455H149.821V46.1562C149.821 46.625 149.714 47.0062 149.501 47.2997C149.291 47.5956 149.006 47.8123 148.649 47.9496C148.294 48.0893 147.898 48.1591 147.463 48.1591ZM147.434 45.1619C147.771 45.1619 148.055 45.085 148.287 44.9311C148.519 44.7772 148.695 44.5559 148.816 44.267C148.937 43.9782 148.997 43.6326 148.997 43.2301C148.997 42.8371 148.938 42.4903 148.819 42.1896C148.701 41.889 148.526 41.6534 148.294 41.483C148.062 41.3125 147.775 41.2273 147.434 41.2273C147.079 41.2273 146.783 41.3172 146.547 41.4972C146.312 41.6771 146.136 41.9186 146.018 42.2216C145.902 42.5246 145.844 42.8608 145.844 43.2301C145.844 43.6089 145.903 43.9439 146.021 44.2351C146.142 44.5239 146.319 44.7512 146.554 44.9169C146.791 45.0803 147.084 45.1619 147.434 45.1619ZM153.642 46.1136C153.116 46.1136 152.663 45.9976 152.282 45.7656C151.903 45.5312 151.611 45.2045 151.405 44.7855C151.201 44.3641 151.099 43.8741 151.099 43.3153C151.099 42.7566 151.201 42.2642 151.405 41.8381C151.611 41.4096 151.897 41.0758 152.264 40.8366C152.633 40.5952 153.064 40.4744 153.557 40.4744C153.841 40.4744 154.121 40.5218 154.398 40.6165C154.675 40.7112 154.927 40.8651 155.155 41.0781C155.382 41.2888 155.563 41.5682 155.698 41.9162C155.833 42.2642 155.9 42.6927 155.9 43.2017V43.5568H151.696V42.8324H155.048C155.048 42.5246 154.987 42.25 154.863 42.0085C154.743 41.767 154.57 41.5765 154.345 41.4368C154.122 41.2971 153.86 41.2273 153.557 41.2273C153.223 41.2273 152.934 41.3101 152.69 41.4759C152.449 41.6392 152.263 41.8523 152.133 42.1151C152.002 42.3778 151.937 42.6596 151.937 42.9602V43.4432C151.937 43.8551 152.008 44.2043 152.15 44.4908C152.295 44.7749 152.495 44.9915 152.751 45.1406C153.006 45.2874 153.303 45.3608 153.642 45.3608C153.862 45.3608 154.061 45.33 154.238 45.2685C154.418 45.2045 154.573 45.1098 154.704 44.9844C154.834 44.8565 154.934 44.6979 155.006 44.5085L155.815 44.7358C155.73 45.0104 155.587 45.2519 155.385 45.4602C155.184 45.6662 154.936 45.8272 154.64 45.9432C154.344 46.0568 154.011 46.1136 153.642 46.1136ZM161.593 46.1278C161.247 46.1278 160.934 46.0627 160.652 45.9325C160.37 45.8 160.146 45.6094 159.981 45.3608C159.815 45.1098 159.732 44.8068 159.732 44.4517C159.732 44.1392 159.794 43.8859 159.917 43.6918C160.04 43.4953 160.204 43.3414 160.41 43.2301C160.616 43.1188 160.844 43.036 161.092 42.9815C161.343 42.9247 161.595 42.8797 161.849 42.8466C162.18 42.804 162.449 42.772 162.655 42.7507C162.863 42.727 163.015 42.688 163.109 42.6335C163.206 42.5791 163.255 42.4844 163.255 42.3494V42.321C163.255 41.9706 163.159 41.6984 162.967 41.5043C162.778 41.3101 162.49 41.2131 162.104 41.2131C161.704 41.2131 161.39 41.3007 161.163 41.4759C160.936 41.651 160.776 41.8381 160.684 42.0369L159.888 41.7528C160.03 41.4214 160.22 41.1634 160.456 40.9787C160.696 40.7917 160.956 40.6615 161.238 40.5881C161.522 40.5123 161.801 40.4744 162.076 40.4744C162.251 40.4744 162.452 40.4957 162.68 40.5384C162.909 40.5786 163.131 40.6626 163.344 40.7905C163.559 40.9183 163.738 41.1113 163.88 41.3693C164.022 41.6274 164.093 41.973 164.093 42.4062V46H163.255V45.2614H163.212C163.155 45.3797 163.061 45.5064 162.928 45.6413C162.796 45.7763 162.619 45.8911 162.399 45.9858C162.179 46.0805 161.91 46.1278 161.593 46.1278ZM161.721 45.375C162.052 45.375 162.331 45.3099 162.559 45.1797C162.788 45.0495 162.961 44.8814 163.077 44.6754C163.196 44.4695 163.255 44.2528 163.255 44.0256V43.2585C163.219 43.3011 163.141 43.3402 163.02 43.3757C162.902 43.4089 162.765 43.4384 162.608 43.4645C162.455 43.4882 162.304 43.5095 162.157 43.5284C162.013 43.545 161.896 43.5592 161.806 43.571C161.588 43.5994 161.385 43.6456 161.195 43.7095C161.008 43.7711 160.857 43.8646 160.741 43.9901C160.627 44.1132 160.57 44.2812 160.57 44.4943C160.57 44.7855 160.678 45.0057 160.893 45.1548C161.111 45.3016 161.387 45.375 161.721 45.375ZM166.461 42.7188V46H165.623V40.5455H166.432V41.3977H166.503C166.631 41.1207 166.825 40.8982 167.086 40.7301C167.346 40.5597 167.682 40.4744 168.094 40.4744C168.463 40.4744 168.787 40.5502 169.064 40.7017C169.341 40.8509 169.556 41.0781 169.71 41.3835C169.864 41.6866 169.941 42.0701 169.941 42.5341V46H169.103V42.5909C169.103 42.1624 168.991 41.8286 168.769 41.5895C168.546 41.348 168.241 41.2273 167.853 41.2273C167.585 41.2273 167.346 41.2853 167.135 41.4013C166.927 41.5173 166.762 41.6866 166.642 41.9091C166.521 42.1316 166.461 42.4015 166.461 42.7188ZM173.532 46.1136C173.077 46.1136 172.676 45.9988 172.328 45.7692C171.98 45.5372 171.708 45.2105 171.511 44.7891C171.315 44.3653 171.216 43.8646 171.216 43.2869C171.216 42.714 171.315 42.2169 171.511 41.7955C171.708 41.3741 171.981 41.0485 172.331 40.8189C172.682 40.5893 173.087 40.4744 173.546 40.4744C173.901 40.4744 174.182 40.5336 174.388 40.652C174.596 40.768 174.755 40.9006 174.863 41.0497C174.975 41.1965 175.061 41.3172 175.123 41.4119H175.194V38.7273H176.032V46H175.222V45.1619H175.123C175.061 45.2614 174.974 45.3868 174.86 45.5384C174.746 45.6875 174.584 45.8213 174.373 45.9396C174.163 46.0556 173.882 46.1136 173.532 46.1136ZM173.645 45.3608C173.982 45.3608 174.266 45.2732 174.498 45.098C174.73 44.9205 174.906 44.6754 175.027 44.3629C175.148 44.0481 175.208 43.6847 175.208 43.2727C175.208 42.8655 175.149 42.5092 175.03 42.2038C174.912 41.8961 174.737 41.657 174.505 41.4865C174.273 41.3137 173.986 41.2273 173.645 41.2273C173.29 41.2273 172.994 41.3184 172.758 41.5007C172.523 41.6806 172.347 41.9257 172.229 42.2358C172.113 42.5436 172.055 42.8892 172.055 43.2727C172.055 43.661 172.114 44.0137 172.232 44.331C172.353 44.6458 172.53 44.8968 172.765 45.0838C173.001 45.2685 173.295 45.3608 173.645 45.3608ZM182.925 40.5455V41.2557H179.984V40.5455H182.925ZM180.865 46V39.7926C180.865 39.4801 180.938 39.2197 181.085 39.0114C181.232 38.803 181.422 38.6468 181.657 38.5426C181.891 38.4384 182.139 38.3864 182.399 38.3864C182.605 38.3864 182.773 38.4029 182.903 38.4361C183.033 38.4692 183.131 38.5 183.194 38.5284L182.953 39.2528C182.91 39.2386 182.851 39.2209 182.775 39.1996C182.702 39.1783 182.605 39.1676 182.484 39.1676C182.207 39.1676 182.007 39.2375 181.884 39.3771C181.763 39.5168 181.703 39.7216 181.703 39.9915V46H180.865ZM184.099 46V40.5455H184.909V41.3693H184.966C185.065 41.0994 185.245 40.8804 185.505 40.7124C185.766 40.5443 186.059 40.4602 186.386 40.4602C186.448 40.4602 186.525 40.4614 186.617 40.4638C186.709 40.4661 186.779 40.4697 186.826 40.4744V41.3267C186.798 41.3196 186.733 41.3089 186.631 41.2947C186.532 41.2782 186.426 41.2699 186.315 41.2699C186.05 41.2699 185.813 41.3255 185.605 41.4368C185.399 41.5457 185.235 41.6972 185.115 41.8913C184.996 42.0831 184.937 42.3021 184.937 42.5483V46H184.099ZM189.941 46.1136C189.415 46.1136 188.962 45.9976 188.581 45.7656C188.202 45.5312 187.909 45.2045 187.703 44.7855C187.5 44.3641 187.398 43.8741 187.398 43.3153C187.398 42.7566 187.5 42.2642 187.703 41.8381C187.909 41.4096 188.196 41.0758 188.563 40.8366C188.932 40.5952 189.363 40.4744 189.855 40.4744C190.14 40.4744 190.42 40.5218 190.697 40.6165C190.974 40.7112 191.226 40.8651 191.453 41.0781C191.681 41.2888 191.862 41.5682 191.997 41.9162C192.132 42.2642 192.199 42.6927 192.199 43.2017V43.5568H187.995V42.8324H191.347C191.347 42.5246 191.285 42.25 191.162 42.0085C191.042 41.767 190.869 41.5765 190.644 41.4368C190.421 41.2971 190.158 41.2273 189.855 41.2273C189.522 41.2273 189.233 41.3101 188.989 41.4759C188.748 41.6392 188.562 41.8523 188.431 42.1151C188.301 42.3778 188.236 42.6596 188.236 42.9602V43.4432C188.236 43.8551 188.307 44.2043 188.449 44.4908C188.594 44.7749 188.794 44.9915 189.049 45.1406C189.305 45.2874 189.602 45.3608 189.941 45.3608C190.161 45.3608 190.36 45.33 190.537 45.2685C190.717 45.2045 190.872 45.1098 191.002 44.9844C191.133 44.8565 191.233 44.6979 191.304 44.5085L192.114 44.7358C192.029 45.0104 191.886 45.2519 191.684 45.4602C191.483 45.6662 191.234 45.8272 190.939 45.9432C190.643 46.0568 190.31 46.1136 189.941 46.1136ZM195.761 46.1136C195.235 46.1136 194.782 45.9976 194.401 45.7656C194.022 45.5312 193.73 45.2045 193.524 44.7855C193.32 44.3641 193.218 43.8741 193.218 43.3153C193.218 42.7566 193.32 42.2642 193.524 41.8381C193.73 41.4096 194.016 41.0758 194.383 40.8366C194.752 40.5952 195.183 40.4744 195.676 40.4744C195.96 40.4744 196.24 40.5218 196.517 40.6165C196.794 40.7112 197.047 40.8651 197.274 41.0781C197.501 41.2888 197.682 41.5682 197.817 41.9162C197.952 42.2642 198.02 42.6927 198.02 43.2017V43.5568H193.815V42.8324H197.167C197.167 42.5246 197.106 42.25 196.983 42.0085C196.862 41.767 196.689 41.5765 196.464 41.4368C196.242 41.2971 195.979 41.2273 195.676 41.2273C195.342 41.2273 195.053 41.3101 194.809 41.4759C194.568 41.6392 194.382 41.8523 194.252 42.1151C194.122 42.3778 194.056 42.6596 194.056 42.9602V43.4432C194.056 43.8551 194.127 44.2043 194.27 44.4908C194.414 44.7749 194.614 44.9915 194.87 45.1406C195.125 45.2874 195.422 45.3608 195.761 45.3608C195.981 45.3608 196.18 45.33 196.358 45.2685C196.538 45.2045 196.693 45.1098 196.823 44.9844C196.953 44.8565 197.054 44.6979 197.125 44.5085L197.934 44.7358C197.849 45.0104 197.706 45.2519 197.505 45.4602C197.303 45.6662 197.055 45.8272 196.759 45.9432C196.463 46.0568 196.13 46.1136 195.761 46.1136ZM205.544 43.7699V40.5455H206.382V46H205.544V45.0767H205.488C205.36 45.3537 205.161 45.5893 204.891 45.7834C204.621 45.9751 204.28 46.071 203.868 46.071C203.527 46.071 203.224 45.9964 202.959 45.8473C202.694 45.6958 202.486 45.4685 202.334 45.1655C202.183 44.8601 202.107 44.4754 202.107 44.0114V40.5455H202.945V43.9545C202.945 44.3523 203.056 44.6695 203.279 44.9062C203.504 45.143 203.79 45.2614 204.138 45.2614C204.346 45.2614 204.558 45.2081 204.774 45.1016C204.992 44.995 205.174 44.8317 205.321 44.6115C205.47 44.3913 205.544 44.1108 205.544 43.7699ZM207.917 48.0455V40.5455H208.727V41.4119H208.827C208.888 41.3172 208.973 41.1965 209.082 41.0497C209.193 40.9006 209.352 40.768 209.558 40.652C209.766 40.5336 210.048 40.4744 210.403 40.4744C210.863 40.4744 211.267 40.5893 211.618 40.8189C211.968 41.0485 212.242 41.3741 212.438 41.7955C212.635 42.2169 212.733 42.714 212.733 43.2869C212.733 43.8646 212.635 44.3653 212.438 44.7891C212.242 45.2105 211.969 45.5372 211.621 45.7692C211.273 45.9988 210.872 46.1136 210.417 46.1136C210.067 46.1136 209.787 46.0556 209.576 45.9396C209.365 45.8213 209.203 45.6875 209.089 45.5384C208.976 45.3868 208.888 45.2614 208.827 45.1619H208.756V48.0455H207.917ZM208.741 43.2727C208.741 43.6847 208.802 44.0481 208.922 44.3629C209.043 44.6754 209.22 44.9205 209.452 45.098C209.684 45.2732 209.968 45.3608 210.304 45.3608C210.654 45.3608 210.947 45.2685 211.181 45.0838C211.418 44.8968 211.595 44.6458 211.714 44.331C211.834 44.0137 211.895 43.661 211.895 43.2727C211.895 42.8892 211.836 42.5436 211.717 42.2358C211.601 41.9257 211.425 41.6806 211.188 41.5007C210.954 41.3184 210.659 41.2273 210.304 41.2273C209.963 41.2273 209.676 41.3137 209.444 41.4865C209.212 41.657 209.037 41.8961 208.919 42.2038C208.8 42.5092 208.741 42.8655 208.741 43.2727ZM220.687 41.767L219.934 41.9801C219.887 41.8546 219.817 41.7327 219.725 41.6143C219.635 41.4936 219.512 41.3942 219.356 41.3161C219.199 41.2379 218.999 41.1989 218.756 41.1989C218.422 41.1989 218.144 41.2758 217.921 41.4297C217.701 41.5812 217.591 41.7741 217.591 42.0085C217.591 42.2169 217.666 42.3814 217.818 42.5021C217.97 42.6229 218.206 42.7235 218.528 42.804L219.338 43.0028C219.826 43.1212 220.189 43.3023 220.428 43.5462C220.667 43.7876 220.787 44.099 220.787 44.4801C220.787 44.7926 220.697 45.072 220.517 45.3182C220.339 45.5644 220.091 45.7585 219.771 45.9006C219.452 46.0426 219.08 46.1136 218.656 46.1136C218.1 46.1136 217.639 45.9929 217.275 45.7514C216.91 45.5099 216.679 45.1572 216.582 44.6932L217.378 44.4943C217.453 44.7879 217.597 45.008 217.807 45.1548C218.02 45.3016 218.299 45.375 218.642 45.375C219.032 45.375 219.343 45.2921 219.572 45.1264C219.804 44.9583 219.92 44.7571 219.92 44.5227C219.92 44.3333 219.854 44.1747 219.721 44.0469C219.589 43.9167 219.385 43.8196 219.111 43.7557L218.202 43.5426C217.702 43.4242 217.335 43.2408 217.101 42.9922C216.869 42.7412 216.753 42.4276 216.753 42.0511C216.753 41.7434 216.839 41.4711 217.012 41.2344C217.187 40.9976 217.425 40.8118 217.726 40.6768C218.029 40.5419 218.372 40.4744 218.756 40.4744C219.295 40.4744 219.719 40.5928 220.027 40.8295C220.337 41.0663 220.557 41.3788 220.687 41.767ZM222.048 48.0455V40.5455H222.858V41.4119H222.957C223.019 41.3172 223.104 41.1965 223.213 41.0497C223.324 40.9006 223.483 40.768 223.689 40.652C223.897 40.5336 224.179 40.4744 224.534 40.4744C224.993 40.4744 225.398 40.5893 225.749 40.8189C226.099 41.0485 226.372 41.3741 226.569 41.7955C226.765 42.2169 226.864 42.714 226.864 43.2869C226.864 43.8646 226.765 44.3653 226.569 44.7891C226.372 45.2105 226.1 45.5372 225.752 45.7692C225.404 45.9988 225.003 46.1136 224.548 46.1136C224.198 46.1136 223.917 46.0556 223.707 45.9396C223.496 45.8213 223.334 45.6875 223.22 45.5384C223.107 45.3868 223.019 45.2614 222.957 45.1619H222.886V48.0455H222.048ZM222.872 43.2727C222.872 43.6847 222.933 44.0481 223.053 44.3629C223.174 44.6754 223.35 44.9205 223.582 45.098C223.814 45.2732 224.098 45.3608 224.435 45.3608C224.785 45.3608 225.077 45.2685 225.312 45.0838C225.549 44.8968 225.726 44.6458 225.844 44.331C225.965 44.0137 226.026 43.661 226.026 43.2727C226.026 42.8892 225.966 42.5436 225.848 42.2358C225.732 41.9257 225.556 41.6806 225.319 41.5007C225.085 41.3184 224.79 41.2273 224.435 41.2273C224.094 41.2273 223.807 41.3137 223.575 41.4865C223.343 41.657 223.168 41.8961 223.05 42.2038C222.931 42.5092 222.872 42.8655 222.872 43.2727ZM229.747 46.1278C229.402 46.1278 229.088 46.0627 228.806 45.9325C228.524 45.8 228.301 45.6094 228.135 45.3608C227.969 45.1098 227.886 44.8068 227.886 44.4517C227.886 44.1392 227.948 43.8859 228.071 43.6918C228.194 43.4953 228.359 43.3414 228.565 43.2301C228.771 43.1188 228.998 43.036 229.246 42.9815C229.497 42.9247 229.75 42.8797 230.003 42.8466C230.334 42.804 230.603 42.772 230.809 42.7507C231.017 42.727 231.169 42.688 231.263 42.6335C231.361 42.5791 231.409 42.4844 231.409 42.3494V42.321C231.409 41.9706 231.313 41.6984 231.121 41.5043C230.932 41.3101 230.644 41.2131 230.259 41.2131C229.858 41.2131 229.545 41.3007 229.317 41.4759C229.09 41.651 228.93 41.8381 228.838 42.0369L228.043 41.7528C228.185 41.4214 228.374 41.1634 228.611 40.9787C228.85 40.7917 229.11 40.6615 229.392 40.5881C229.676 40.5123 229.955 40.4744 230.23 40.4744C230.405 40.4744 230.607 40.4957 230.834 40.5384C231.063 40.5786 231.285 40.6626 231.498 40.7905C231.713 40.9183 231.892 41.1113 232.034 41.3693C232.176 41.6274 232.247 41.973 232.247 42.4062V46H231.409V45.2614H231.366C231.31 45.3797 231.215 45.5064 231.082 45.6413C230.95 45.7763 230.773 45.8911 230.553 45.9858C230.333 46.0805 230.064 46.1278 229.747 46.1278ZM229.875 45.375C230.206 45.375 230.486 45.3099 230.713 45.1797C230.943 45.0495 231.116 44.8814 231.232 44.6754C231.35 44.4695 231.409 44.2528 231.409 44.0256V43.2585C231.374 43.3011 231.295 43.3402 231.175 43.3757C231.056 43.4089 230.919 43.4384 230.763 43.4645C230.609 43.4882 230.459 43.5095 230.312 43.5284C230.167 43.545 230.05 43.5592 229.96 43.571C229.742 43.5994 229.539 43.6456 229.349 43.7095C229.162 43.7711 229.011 43.8646 228.895 43.9901C228.781 44.1132 228.724 44.2812 228.724 44.4943C228.724 44.7855 228.832 45.0057 229.048 45.1548C229.265 45.3016 229.541 45.375 229.875 45.375ZM235.993 46.1136C235.481 46.1136 235.041 45.9929 234.672 45.7514C234.302 45.5099 234.018 45.1773 233.819 44.7536C233.621 44.3298 233.521 43.8456 233.521 43.3011C233.521 42.7472 233.623 42.2583 233.827 41.8345C234.032 41.4084 234.319 41.0758 234.686 40.8366C235.055 40.5952 235.486 40.4744 235.979 40.4744C236.362 40.4744 236.708 40.5455 237.015 40.6875C237.323 40.8295 237.575 41.0284 237.772 41.2841C237.968 41.5398 238.09 41.8381 238.138 42.179H237.3C237.236 41.9304 237.094 41.7102 236.873 41.5185C236.656 41.3243 236.362 41.2273 235.993 41.2273C235.666 41.2273 235.38 41.3125 235.133 41.483C234.89 41.651 234.699 41.889 234.562 42.1967C234.427 42.5021 234.359 42.8608 234.359 43.2727C234.359 43.6941 234.425 44.0611 234.558 44.3736C234.693 44.6861 234.882 44.9287 235.126 45.1016C235.372 45.2744 235.661 45.3608 235.993 45.3608C236.211 45.3608 236.408 45.3229 236.586 45.2472C236.763 45.1714 236.914 45.0625 237.037 44.9205C237.16 44.7784 237.247 44.608 237.3 44.4091H238.138C238.09 44.7311 237.973 45.0211 237.786 45.2791C237.601 45.5348 237.356 45.7384 237.051 45.8899C236.748 46.0391 236.395 46.1136 235.993 46.1136ZM241.65 46.1136C241.124 46.1136 240.671 45.9976 240.29 45.7656C239.911 45.5312 239.618 45.2045 239.412 44.7855C239.209 44.3641 239.107 43.8741 239.107 43.3153C239.107 42.7566 239.209 42.2642 239.412 41.8381C239.618 41.4096 239.905 41.0758 240.272 40.8366C240.641 40.5952 241.072 40.4744 241.564 40.4744C241.849 40.4744 242.129 40.5218 242.406 40.6165C242.683 40.7112 242.935 40.8651 243.162 41.0781C243.39 41.2888 243.571 41.5682 243.706 41.9162C243.841 42.2642 243.908 42.6927 243.908 43.2017V43.5568H239.704V42.8324H243.056C243.056 42.5246 242.994 42.25 242.871 42.0085C242.751 41.767 242.578 41.5765 242.353 41.4368C242.13 41.2971 241.867 41.2273 241.564 41.2273C241.231 41.2273 240.942 41.3101 240.698 41.4759C240.456 41.6392 240.271 41.8523 240.14 42.1151C240.01 42.3778 239.945 42.6596 239.945 42.9602V43.4432C239.945 43.8551 240.016 44.2043 240.158 44.4908C240.303 44.7749 240.503 44.9915 240.758 45.1406C241.014 45.2874 241.311 45.3608 241.65 45.3608C241.87 45.3608 242.069 45.33 242.246 45.2685C242.426 45.2045 242.581 45.1098 242.711 44.9844C242.842 44.8565 242.942 44.6979 243.013 44.5085L243.823 44.7358C243.738 45.0104 243.595 45.2519 243.393 45.4602C243.192 45.6662 242.943 45.8272 242.648 45.9432C242.352 46.0568 242.019 46.1136 241.65 46.1136Z" fill="#6B7280"/>
<defs>
<linearGradient id="paint0_linear_25_1386" x1="28" y1="20.603" x2="28" y2="29.603" gradientUnits="userSpaceOnUse">
<stop stop-color="#EBA600"/>
<stop offset="1" stop-color="#C28200"/>
</linearGradient>
<linearGradient id="paint1_linear_25_1386" x1="28" y1="42.1325" x2="28" y2="31.8825" gradientUnits="userSpaceOnUse">
<stop stop-color="#FFCF54"/>
<stop offset="0.261" stop-color="#FDCB4D"/>
<stop offset="0.639" stop-color="#F7C13A"/>
<stop offset="1" stop-color="#F0B421"/>
</linearGradient>
<linearGradient id="paint2_linear_25_1386" x1="24.3345" y1="42.3435" x2="24.3345" y2="37.301" gradientUnits="userSpaceOnUse">
<stop stop-color="#EBA600"/>
<stop offset="1" stop-color="#C28200"/>
</linearGradient>
<linearGradient id="paint3_linear_25_1386" x1="32.196" y1="42.1535" x2="32.196" y2="34.878" gradientUnits="userSpaceOnUse">
<stop stop-color="#EBA600"/>
<stop offset="1" stop-color="#C28200"/>
</linearGradient>
<linearGradient id="paint4_linear_25_1386" x1="27.071" y1="27.8505" x2="28.7455" y2="33.8955" gradientUnits="userSpaceOnUse">
<stop stop-color="#0D61A9"/>
<stop offset="1" stop-color="#16528C"/>
</linearGradient>
</defs>
</svg>
