<svg width="32" height="32" viewBox="0 0 32 32" fill="none" xmlns="http://www.w3.org/2000/svg">
<g clip-path="url(#clip0_404_15)">
<rect width="32" height="32" rx="16" fill="#D6ECFD"/>
<g filter="url(#filter0_d_404_15)">
<path d="M13.2213 8.65122C11.7989 8.27009 10.3365 9.11443 9.95532 10.5368L5.20072 28.2813C4.81959 29.7037 5.66393 31.1661 7.08634 31.5472L20.2516 35.0749C21.674 35.456 23.1364 34.6117 23.5175 33.1892L26.5083 22.0274L19.9257 20.2636C18.5033 19.8825 17.659 18.4201 18.0401 16.9976L19.8039 10.415L13.2213 8.65122ZM21.3863 11.3782L19.7573 17.4578C19.6305 17.9311 19.9125 18.4196 20.3859 18.5464L26.4654 20.1754L21.3863 11.3782ZM14.1513 21.2075C14.9418 21.4193 15.4107 22.2315 15.1989 23.0219C14.9871 23.8124 14.175 24.2813 13.3845 24.0695C12.594 23.8577 12.1251 23.0456 12.3369 22.2551C12.5487 21.4646 13.3609 20.9957 14.1513 21.2075ZM19.3029 22.5879C20.0934 22.7997 20.5623 23.6118 20.3505 24.4023C20.1387 25.1928 19.3266 25.6617 18.5361 25.4499C17.7456 25.2381 17.2767 24.4259 17.4885 23.6354C17.7003 22.845 18.5125 22.3761 19.3029 22.5879ZM12.2757 25.7747C12.5557 25.83 12.8042 26.0194 12.9227 26.3027C13.3118 27.2248 14.0865 27.9015 15.0493 28.1594C16.0121 28.4174 17.021 28.218 17.8186 27.6134C18.2104 27.3165 18.7678 27.3943 19.0642 27.7854C19.361 28.1772 19.2841 28.7336 18.8936 29.0302C17.6548 29.9694 16.086 30.2777 14.5892 29.8766C13.0924 29.4756 11.8881 28.4236 11.2847 26.9914C11.0942 26.5391 11.3067 26.0178 11.7594 25.828C11.929 25.7564 12.1078 25.7415 12.2757 25.7747Z" fill="white"/>
</g>
</g>
<defs>
<filter id="filter0_d_404_15" x="-10.8907" y="0.559723" width="53.399" height="58.6066" filterUnits="userSpaceOnUse" color-interpolation-filters="sRGB">
<feFlood flood-opacity="0" result="BackgroundImageFix"/>
<feColorMatrix in="SourceAlpha" type="matrix" values="0 0 0 0 0 0 0 0 0 0 0 0 0 0 0 0 0 0 127 0" result="hardAlpha"/>
<feOffset dy="8"/>
<feGaussianBlur stdDeviation="8"/>
<feComposite in2="hardAlpha" operator="out"/>
<feColorMatrix type="matrix" values="0 0 0 0 0.0392157 0 0 0 0 0.482353 0 0 0 0 0.8 0 0 0 0.2 0"/>
<feBlend mode="normal" in2="BackgroundImageFix" result="effect1_dropShadow_404_15"/>
<feBlend mode="normal" in="SourceGraphic" in2="effect1_dropShadow_404_15" result="shape"/>
</filter>
<clipPath id="clip0_404_15">
<rect width="32" height="32" rx="16" fill="white"/>
</clipPath>
</defs>
</svg>
